<svg xmlns="http://www.w3.org/2000/svg" width="14.127" height="14.126" viewBox="0 0 14.127 14.126">
  <g id="github-sign_1_" data-name="github-sign (1)" transform="translate(0.001)">
    <g id="Group_35" data-name="Group 35" transform="translate(-0.001 0)">
      <path id="Path_65" data-name="Path 65" d="M154.241,352.513q-.147.027-.129.138t.166.074q.147-.037.129-.129T154.241,352.513Z" transform="translate(-149.146 -341.155)" fill="#edf2f4"/>
      <path id="Path_66" data-name="Path 66" d="M137.477,354.811c-.1,0-.147.034-.147.1s.052.113.156.1.147-.034.147-.1S137.581,354.8,137.477,354.811Z" transform="translate(-132.906 -343.379)" fill="#edf2f4"/>
      <path id="Path_67" data-name="Path 67" d="M119.419,351.794q-.037.1.12.138.138.055.175-.055t-.12-.147C119.5,351.7,119.444,351.726,119.419,351.794Z" transform="translate(-115.565 -340.389)" fill="#edf2f4"/>
      <path id="Path_68" data-name="Path 68" d="M13.35.777A2.551,2.551,0,0,0,11.478,0H2.649A2.552,2.552,0,0,0,.777.777,2.552,2.552,0,0,0,0,2.649v8.829a2.551,2.551,0,0,0,.777,1.872,2.551,2.551,0,0,0,1.872.777h2.06a2.487,2.487,0,0,0,.3-.014.356.356,0,0,0,.2-.12.428.428,0,0,0,.1-.308q0-.027,0-.625t0-.947l-.212.037a2.707,2.707,0,0,1-.51.032,3.928,3.928,0,0,1-.639-.064,1.433,1.433,0,0,1-.616-.276,1.167,1.167,0,0,1-.4-.566l-.092-.212a2.3,2.3,0,0,0-.29-.469,1.11,1.11,0,0,0-.4-.35L2.078,10.2a.676.676,0,0,1-.12-.11.511.511,0,0,1-.083-.129q-.028-.065.046-.106a.6.6,0,0,1,.267-.041l.184.028a1.341,1.341,0,0,1,.455.221,1.484,1.484,0,0,1,.446.478,1.621,1.621,0,0,0,.51.575,1.082,1.082,0,0,0,.6.2,2.613,2.613,0,0,0,.524-.046,1.831,1.831,0,0,0,.414-.138,1.491,1.491,0,0,1,.451-.947,6.3,6.3,0,0,1-.943-.166,3.757,3.757,0,0,1-.864-.359,2.475,2.475,0,0,1-.74-.616,2.963,2.963,0,0,1-.483-.966,4.593,4.593,0,0,1-.189-1.38A2.683,2.683,0,0,1,3.283,4.8a2.473,2.473,0,0,1,.064-1.876,1.289,1.289,0,0,1,.791.124,5.547,5.547,0,0,1,.768.354q.244.147.391.248a6.641,6.641,0,0,1,3.532,0l.349-.221a4.948,4.948,0,0,1,.846-.4,1.2,1.2,0,0,1,.745-.1A2.448,2.448,0,0,1,10.843,4.8a2.683,2.683,0,0,1,.727,1.895,4.637,4.637,0,0,1-.189,1.384,2.841,2.841,0,0,1-.487.966,2.572,2.572,0,0,1-.745.612,3.752,3.752,0,0,1-.865.359,6.294,6.294,0,0,1-.943.166,1.638,1.638,0,0,1,.478,1.306v2.2a.592.592,0,0,0,.046.253.254.254,0,0,0,.147.133.815.815,0,0,0,.179.046,2.064,2.064,0,0,0,.225.009h2.06a2.653,2.653,0,0,0,2.649-2.649V2.649A2.552,2.552,0,0,0,13.35.777Z" transform="translate(0 0)" fill="#edf2f4"/>
      <path id="Path_69" data-name="Path 69" d="M85.948,318.529q-.064.046.018.147t.147.028q.064-.046-.019-.147Q86,318.474,85.948,318.529Z" transform="translate(-83.152 -308.247)" fill="#edf2f4"/>
      <path id="Path_70" data-name="Path 70" d="M77.183,311.19q-.028.065.064.11a.079.079,0,0,0,.12-.018q.028-.064-.064-.111Q77.211,311.143,77.183,311.19Z" transform="translate(-74.691 -301.137)" fill="#edf2f4"/>
      <path id="Path_71" data-name="Path 71" d="M94.4,329.652q-.083.046,0,.166t.156.064q.083-.064,0-.175C94.509,329.627,94.456,329.609,94.4,329.652Z" transform="translate(-91.32 -319.011)" fill="#edf2f4"/>
      <path id="Path_72" data-name="Path 72" d="M104.622,342.111c-.055.049-.043.107.037.175s.135.083.184.027.037-.107-.037-.175S104.671,342.055,104.622,342.111Z" transform="translate(-101.219 -331.056)" fill="#edf2f4"/>
    </g>
  </g>
</svg>
