<svg xmlns="http://www.w3.org/2000/svg" width="13.996" height="13.996" viewBox="0 0 13.996 13.996">
  <g id="linkedin_1_" data-name="linkedin (1)" transform="translate(0)">
    <path id="Path_61" data-name="Path 61" d="M17.531,17.153h0V12.019c0-2.511-.541-4.445-3.476-4.445a3.048,3.048,0,0,0-2.745,1.509h-.041V7.808H8.489v9.344h2.9V12.526c0-1.218.231-2.4,1.74-2.4,1.487,0,1.509,1.39,1.509,2.474v4.549Z" transform="translate(-3.539 -3.157)" fill="#edf2f4"/>
    <path id="Path_62" data-name="Path 62" d="M.4,7.977H3.3v9.344H.4Z" transform="translate(-0.165 -3.325)" fill="#edf2f4"/>
    <path id="Path_63" data-name="Path 63" d="M1.681,0A1.689,1.689,0,1,0,3.361,1.681,1.681,1.681,0,0,0,1.681,0Z" transform="translate(0)" fill="#edf2f4"/>
  </g>
</svg>
