<svg xmlns="http://www.w3.org/2000/svg" width="17.387" height="14.127" viewBox="0 0 17.387 14.127">
  <g id="twitter" transform="translate(0.001)">
    <g id="Group_34" data-name="Group 34" transform="translate(-0.001 0)">
      <path id="Path_64" data-name="Path 64" d="M17.387,49.672a7.432,7.432,0,0,1-2.054.563,3.545,3.545,0,0,0,1.568-1.97,7.124,7.124,0,0,1-2.26.863,3.564,3.564,0,0,0-6.166,2.437,3.67,3.67,0,0,0,.083.813A10.09,10.09,0,0,1,1.211,48.65a3.565,3.565,0,0,0,1.1,4.764A3.521,3.521,0,0,1,.7,52.975v.039a3.581,3.581,0,0,0,2.856,3.5,3.558,3.558,0,0,1-.935.117,3.152,3.152,0,0,1-.675-.061,3.6,3.6,0,0,0,3.331,2.483,7.162,7.162,0,0,1-4.42,1.52A6.676,6.676,0,0,1,0,60.527a10.035,10.035,0,0,0,5.468,1.6A10.075,10.075,0,0,0,15.614,51.984c0-.158-.005-.31-.013-.461A7.111,7.111,0,0,0,17.387,49.672Z" transform="translate(0 -48)" fill="#edf2f4"/>
    </g>
  </g>
</svg>
